<svg xmlns="http://www.w3.org/2000/svg" xmlns:xlink="http://www.w3.org/1999/xlink" preserveAspectRatio="xMidYMid" width="302" height="129" viewBox="0 0 302 129">
  <defs>
    <style>

      .cls-2 {
        fill: #b19c6a;
      }
    </style>
  </defs>
  <path d="M302.002,109.235 C302.002,109.235 302.002,110.377 302.002,110.377 C302.002,110.377 272.879,110.377 272.879,110.377 C272.879,110.377 272.879,110.376 272.879,110.376 C272.879,110.376 271.542,110.376 271.542,110.376 C271.542,110.376 271.542,110.377 271.542,110.377 C271.542,110.377 119.811,110.377 119.811,110.377 C119.811,110.377 119.811,109.235 119.811,109.235 C119.811,109.235 271.542,109.235 271.542,109.235 C271.542,109.235 271.542,73.576 271.542,73.576 C271.356,73.582 271.166,73.584 270.975,73.584 C267.451,73.584 264.575,72.567 262.307,70.489 C259.998,68.411 258.865,65.804 258.865,62.708 C258.865,59.529 259.998,56.881 262.267,54.844 C264.535,52.765 267.451,51.748 270.975,51.748 C271.166,51.748 271.356,51.750 271.542,51.758 C271.542,51.758 271.542,0.004 271.542,0.004 C271.542,0.004 272.879,0.004 272.879,0.004 C272.879,0.004 272.879,51.854 272.879,51.854 C275.549,52.164 277.798,53.153 279.643,54.844 C281.911,56.923 283.087,59.529 283.087,62.708 C283.087,65.804 281.911,68.411 279.643,70.489 C277.798,72.180 275.549,73.169 272.879,73.478 C272.879,73.478 272.879,109.235 272.879,109.235 C272.879,109.235 302.002,109.235 302.002,109.235 ZM271.542,54.654 C271.357,54.644 271.167,54.640 270.975,54.640 C268.504,54.640 266.520,55.374 265.021,56.841 C263.523,58.307 262.793,60.262 262.793,62.626 C262.793,65.030 263.523,66.986 265.062,68.452 C266.560,69.959 268.545,70.693 271.016,70.693 C271.194,70.693 271.369,70.689 271.542,70.681 C271.542,70.681 271.542,54.654 271.542,54.654 ZM276.929,68.452 C278.428,66.944 279.157,64.989 279.157,62.626 C279.157,60.262 278.428,58.307 276.929,56.841 C275.838,55.771 274.486,55.093 272.879,54.802 C272.879,54.802 272.879,70.533 272.879,70.533 C274.466,70.240 275.805,69.553 276.929,68.452 ZM272.879,128.996 C272.879,128.996 271.542,128.996 271.542,128.996 C271.542,128.996 271.542,110.377 271.542,110.377 C271.542,110.377 272.879,110.377 272.879,110.377 C272.879,110.377 272.879,128.996 272.879,128.996 ZM258.661,92.530 C259.635,92.613 260.403,92.653 260.930,92.693 C264.008,92.897 266.155,93.468 267.451,94.364 C268.747,95.260 269.395,96.605 269.395,98.479 C269.395,100.598 268.384,102.349 266.358,103.735 C264.332,105.079 261.741,105.771 258.661,105.771 C255.624,105.771 252.626,104.875 249.629,103.042 C249.143,102.716 248.860,102.553 248.778,102.553 C248.697,102.553 248.618,102.595 248.495,102.676 C248.415,102.716 248.211,102.880 247.969,103.082 C247.969,103.082 247.401,102.797 247.401,102.797 C247.401,102.797 250.440,98.152 250.440,98.152 C250.440,98.152 250.966,98.398 250.966,98.398 C250.924,98.519 250.885,98.642 250.885,98.765 C250.845,98.886 250.845,99.009 250.845,99.130 C250.845,99.701 251.736,100.435 253.477,101.330 C255.260,102.186 257.123,102.634 259.067,102.634 C261.133,102.634 262.793,102.267 264.089,101.575 C265.346,100.883 265.993,100.027 265.993,98.928 C265.993,97.989 265.547,97.297 264.696,96.931 C263.806,96.564 261.902,96.320 258.986,96.238 C255.380,96.116 252.829,95.668 251.370,94.771 C249.873,93.956 249.143,92.571 249.143,90.656 C249.143,88.660 250.074,87.030 251.978,85.767 C253.842,84.504 256.313,83.893 259.351,83.893 C261.457,83.893 263.765,84.382 266.237,85.360 C266.966,85.644 267.370,85.767 267.573,85.767 C267.654,85.767 267.775,85.727 267.938,85.644 C268.099,85.564 268.261,85.442 268.423,85.237 C268.423,85.237 268.949,85.482 268.949,85.482 C268.949,85.482 266.398,90.371 266.398,90.371 C266.398,90.371 265.791,90.167 265.791,90.167 C265.831,90.086 265.871,90.045 265.871,89.964 C265.913,89.923 265.913,89.842 265.913,89.719 C265.913,89.027 265.223,88.416 263.806,87.845 C262.428,87.234 260.850,86.949 259.067,86.949 C257.244,86.949 255.705,87.274 254.530,87.885 C253.274,88.537 252.707,89.311 252.707,90.208 C252.707,91.593 254.692,92.368 258.661,92.530 ZM258.257,53.256 C258.095,53.458 258.014,53.744 258.014,54.192 C258.014,54.192 258.014,71.180 258.014,71.180 C258.014,71.631 258.095,71.915 258.257,72.119 C258.419,72.281 258.702,72.444 259.188,72.567 C259.188,72.567 259.188,73.177 259.188,73.177 C259.188,73.177 253.113,73.177 253.113,73.177 C253.113,73.177 253.113,72.567 253.113,72.567 C253.598,72.444 253.882,72.323 254.043,72.119 C254.166,71.956 254.246,71.631 254.246,71.180 C254.246,71.180 254.246,64.052 254.246,64.052 C254.246,64.052 240.961,64.052 240.961,64.052 C240.961,64.052 240.961,71.180 240.961,71.180 C240.961,71.631 241.043,71.956 241.203,72.119 C241.326,72.323 241.650,72.444 242.095,72.567 C242.095,72.567 242.095,73.177 242.095,73.177 C242.095,73.177 236.020,73.177 236.020,73.177 C236.020,73.177 236.020,72.567 236.020,72.567 C236.505,72.444 236.829,72.323 236.951,72.119 C237.073,71.956 237.153,71.631 237.153,71.180 C237.153,71.180 237.153,54.192 237.153,54.192 C237.153,53.744 237.073,53.418 236.951,53.256 C236.829,53.091 236.505,52.929 236.020,52.807 C236.020,52.807 236.020,52.196 236.020,52.196 C236.020,52.196 242.095,52.196 242.095,52.196 C242.095,52.196 242.095,52.807 242.095,52.807 C241.650,52.929 241.326,53.091 241.203,53.256 C241.043,53.418 240.961,53.744 240.961,54.192 C240.961,54.192 240.961,60.874 240.961,60.874 C240.961,60.874 254.246,60.874 254.246,60.874 C254.246,60.874 254.246,54.192 254.246,54.192 C254.246,53.744 254.166,53.418 254.043,53.256 C253.882,53.091 253.598,52.929 253.113,52.807 C253.113,52.807 253.113,52.196 253.113,52.196 C253.113,52.196 259.188,52.196 259.188,52.196 C259.188,52.196 259.188,52.807 259.188,52.807 C258.702,52.929 258.419,53.091 258.257,53.256 ZM228.040,72.567 C228.365,72.485 228.607,72.363 228.728,72.200 C228.891,72.078 228.972,71.875 228.972,71.671 C228.972,71.508 228.930,71.386 228.891,71.263 C228.810,71.101 228.769,71.018 228.688,70.936 C228.688,70.936 215.200,56.923 215.200,56.923 C215.200,56.923 215.200,71.180 215.200,71.180 C215.200,71.631 215.281,71.956 215.402,72.119 C215.564,72.323 215.848,72.444 216.294,72.567 C216.294,72.567 216.294,73.177 216.294,73.177 C216.294,73.177 211.109,73.177 211.109,73.177 C211.109,73.177 211.109,72.567 211.109,72.567 C211.595,72.444 211.920,72.323 212.041,72.119 C212.163,71.956 212.243,71.631 212.243,71.180 C212.243,71.180 212.243,54.192 212.243,54.192 C212.243,53.744 212.163,53.418 212.041,53.256 C211.920,53.091 211.595,52.929 211.109,52.807 C211.109,52.807 211.109,52.196 211.109,52.196 C211.109,52.196 218.846,52.196 218.846,52.196 C218.846,52.196 218.846,52.807 218.846,52.807 C218.522,52.889 218.278,53.011 218.117,53.174 C217.996,53.296 217.914,53.500 217.914,53.744 C217.914,53.866 217.954,53.988 217.996,54.110 C218.035,54.233 218.117,54.355 218.197,54.477 C218.197,54.477 230.390,67.067 230.390,67.067 C230.390,67.067 230.390,54.192 230.390,54.192 C230.390,53.744 230.348,53.418 230.187,53.256 C230.066,53.091 229.741,52.929 229.296,52.807 C229.296,52.807 229.296,52.196 229.296,52.196 C229.296,52.196 234.400,52.196 234.400,52.196 C234.400,52.196 234.400,52.807 234.400,52.807 C233.954,52.929 233.671,53.091 233.509,53.256 C233.387,53.418 233.305,53.744 233.305,54.192 C233.305,54.192 233.305,71.180 233.305,71.180 C233.305,71.631 233.387,71.956 233.509,72.119 C233.671,72.323 233.954,72.444 234.400,72.567 C234.400,72.567 234.400,73.177 234.400,73.177 C234.400,73.177 228.040,73.177 228.040,73.177 C228.040,73.177 228.040,72.567 228.040,72.567 ZM173.399,105.771 C169.957,105.771 166.473,104.754 162.908,102.716 C162.140,102.267 161.654,102.065 161.491,102.065 C161.369,102.065 161.248,102.065 161.126,102.146 C161.045,102.186 160.843,102.309 160.599,102.471 C160.599,102.471 160.114,102.186 160.114,102.186 C160.114,102.186 163.759,96.891 163.759,96.891 C163.759,96.891 164.164,97.216 164.164,97.216 C164.124,97.420 164.043,97.582 164.043,97.704 C164.002,97.868 164.002,97.989 164.002,98.113 C164.002,98.805 165.015,99.661 167.122,100.720 C169.227,101.779 171.456,102.309 173.805,102.309 C176.316,102.309 178.341,101.861 179.880,101.005 C181.379,100.149 182.149,99.009 182.149,97.623 C182.149,96.360 181.541,95.505 180.366,94.975 C179.191,94.445 177.005,94.160 173.764,94.079 C169.471,93.915 166.433,93.345 164.650,92.328 C162.868,91.349 161.977,89.719 161.977,87.479 C161.977,85.157 163.111,83.240 165.420,81.693 C167.689,80.104 170.565,79.330 174.088,79.330 C176.438,79.330 179.150,79.942 182.190,81.204 C183.120,81.571 183.647,81.734 183.891,81.734 C184.012,81.734 184.134,81.693 184.335,81.611 C184.498,81.489 184.660,81.326 184.903,81.123 C184.903,81.123 185.349,81.408 185.349,81.408 C185.349,81.408 182.311,86.909 182.311,86.909 C182.311,86.909 181.824,86.582 181.824,86.582 C181.865,86.540 181.907,86.459 181.945,86.378 C181.986,86.297 181.986,86.175 181.986,86.093 C181.986,85.278 181.135,84.504 179.476,83.811 C177.774,83.078 175.912,82.711 173.805,82.711 C171.536,82.711 169.673,83.119 168.214,83.934 C166.756,84.708 166.028,85.727 166.028,86.909 C166.028,88.823 168.458,89.882 173.359,90.086 C174.372,90.126 175.141,90.167 175.708,90.208 C179.353,90.453 182.027,91.104 183.688,92.246 C185.308,93.386 186.159,95.056 186.159,97.297 C186.159,99.661 184.944,101.657 182.473,103.327 C180.002,104.957 177.005,105.771 173.399,105.771 ZM189.440,104.713 C189.440,104.713 189.440,105.324 189.440,105.324 C189.440,105.324 183.647,105.324 183.647,105.324 C183.647,105.324 183.647,104.713 183.647,104.713 C184.134,104.550 184.538,104.306 184.822,104.061 C185.105,103.777 185.389,103.327 185.713,102.716 C185.713,102.716 192.721,86.988 192.721,86.988 C192.721,86.909 192.762,86.868 192.802,86.745 C193.045,86.297 193.125,85.930 193.125,85.727 C193.125,85.564 193.085,85.400 193.004,85.278 C192.882,85.115 192.721,84.993 192.518,84.871 C192.518,84.871 192.518,84.301 192.518,84.301 C192.518,84.301 199.282,84.301 199.282,84.301 C199.282,84.301 199.282,84.871 199.282,84.871 C199.080,84.993 198.917,85.115 198.836,85.237 C198.714,85.400 198.674,85.564 198.633,85.727 C198.633,85.930 198.796,86.297 199.039,86.868 C199.039,86.868 199.080,86.988 199.080,86.988 C199.080,86.988 206.249,102.391 206.249,102.391 C206.574,103.002 206.897,103.491 207.221,103.858 C207.445,104.108 207.688,104.298 207.952,104.454 C208.043,104.399 208.109,104.336 208.153,104.265 C208.274,104.103 208.356,103.777 208.356,103.327 C208.356,103.327 208.356,86.297 208.356,86.297 C208.356,85.848 208.274,85.522 208.153,85.360 C208.030,85.196 207.708,85.033 207.221,84.912 C207.221,84.912 207.221,84.301 207.221,84.301 C207.221,84.301 213.297,84.301 213.297,84.301 C213.297,84.301 213.297,84.912 213.297,84.912 C212.851,85.033 212.526,85.196 212.405,85.360 C212.243,85.522 212.203,85.848 212.203,86.297 C212.203,86.297 212.203,102.105 212.203,102.105 C212.203,102.105 225.529,102.105 225.529,102.105 C226.015,102.105 226.339,102.023 226.501,101.902 C226.704,101.738 226.825,101.453 226.947,100.965 C226.947,100.965 227.514,100.965 227.514,100.965 C227.514,100.965 227.514,104.713 227.514,104.713 C227.958,104.590 228.283,104.468 228.404,104.265 C228.568,104.103 228.607,103.777 228.607,103.327 C228.607,103.327 228.607,86.297 228.607,86.297 C228.607,85.848 228.568,85.522 228.404,85.360 C228.283,85.196 227.958,85.033 227.514,84.912 C227.514,84.912 227.514,84.301 227.514,84.301 C227.514,84.301 244.485,84.301 244.485,84.301 C244.930,84.301 245.255,84.220 245.457,84.056 C245.659,83.934 245.821,83.608 246.024,83.160 C246.024,83.160 246.510,83.160 246.510,83.160 C246.510,83.160 246.510,88.619 246.510,88.619 C246.510,88.619 246.024,88.619 246.024,88.619 C245.863,88.130 245.659,87.845 245.498,87.682 C245.295,87.560 245.012,87.479 244.525,87.479 C244.525,87.479 232.455,87.479 232.455,87.479 C232.455,87.479 232.455,93.019 232.455,93.019 C232.455,93.019 240.111,93.019 240.111,93.019 C240.516,93.019 240.840,92.978 241.043,92.815 C241.245,92.653 241.407,92.368 241.609,91.918 C241.609,91.918 242.137,91.918 242.137,91.918 C242.137,91.918 242.137,97.337 242.137,97.337 C242.137,97.337 241.609,97.337 241.609,97.337 C241.447,96.849 241.245,96.524 241.083,96.402 C240.920,96.280 240.597,96.197 240.151,96.197 C240.151,96.197 232.455,96.197 232.455,96.197 C232.455,96.197 232.455,102.105 232.455,102.105 C232.455,102.105 245.336,102.105 245.336,102.105 C245.782,102.105 246.105,102.023 246.308,101.902 C246.470,101.738 246.673,101.453 246.835,100.965 C246.835,100.965 247.361,100.965 247.361,100.965 C247.361,100.965 247.361,106.424 247.361,106.424 C247.361,106.424 246.835,106.424 246.835,106.424 C246.673,105.976 246.510,105.649 246.348,105.528 C246.147,105.364 245.821,105.324 245.376,105.324 C245.376,105.324 227.514,105.324 227.514,105.324 C227.514,105.324 227.514,106.424 227.514,106.424 C227.514,106.424 227.028,106.424 227.028,106.424 C226.866,105.976 226.744,105.649 226.541,105.528 C226.379,105.364 226.055,105.324 225.610,105.324 C225.610,105.324 202.238,105.324 202.238,105.324 C202.238,105.324 202.239,104.713 202.239,104.713 C202.482,104.631 202.644,104.509 202.725,104.388 C202.846,104.265 202.886,104.142 202.886,103.939 C202.886,103.817 202.846,103.612 202.806,103.409 C202.725,103.205 202.604,102.960 202.441,102.634 C202.441,102.634 201.144,99.864 201.144,99.864 C201.144,99.864 190.412,99.864 190.412,99.864 C190.412,99.864 189.156,102.634 189.156,102.634 C189.076,102.797 188.994,103.002 188.953,103.246 C188.913,103.491 188.872,103.735 188.872,103.939 C188.872,104.142 188.913,104.306 188.994,104.388 C189.076,104.509 189.196,104.631 189.440,104.713 ZM199.768,96.686 C199.768,96.686 195.637,87.968 195.637,87.968 C195.637,87.968 191.748,96.686 191.748,96.686 C191.748,96.686 199.768,96.686 199.768,96.686 ZM198.107,72.689 C198.107,72.689 198.270,72.689 198.270,72.689 C198.431,72.689 198.594,72.648 198.674,72.567 C198.796,72.485 198.836,72.363 198.836,72.241 C198.836,72.160 198.836,72.078 198.756,71.996 C198.714,71.915 198.674,71.833 198.674,71.792 C198.674,71.792 193.774,64.134 193.774,64.134 C193.774,64.134 186.807,64.134 186.807,64.134 C186.807,64.134 186.807,71.180 186.807,71.180 C186.807,71.631 186.847,71.956 187.009,72.119 C187.131,72.323 187.455,72.444 187.900,72.567 C187.900,72.567 187.900,73.177 187.900,73.177 C187.900,73.177 176.842,73.177 176.842,73.177 C176.842,73.177 176.842,72.567 176.842,72.567 C177.085,72.485 177.248,72.363 177.328,72.241 C177.451,72.119 177.491,71.996 177.491,71.792 C177.491,71.671 177.451,71.466 177.369,71.263 C177.328,71.060 177.206,70.816 177.045,70.489 C177.045,70.489 175.749,67.718 175.749,67.718 C175.749,67.718 165.015,67.718 165.015,67.718 C165.015,67.718 163.759,70.489 163.759,70.489 C163.679,70.651 163.597,70.856 163.556,71.101 C163.517,71.345 163.476,71.589 163.476,71.792 C163.476,71.996 163.517,72.160 163.597,72.241 C163.679,72.363 163.799,72.485 164.043,72.567 C164.043,72.567 164.043,73.177 164.043,73.177 C164.043,73.177 152.701,73.177 152.701,73.177 C152.701,73.177 152.701,72.567 152.701,72.567 C153.187,72.444 153.472,72.323 153.633,72.119 C153.754,71.956 153.835,71.631 153.835,71.180 C153.835,71.180 153.835,51.300 153.835,51.300 C153.835,51.300 143.708,72.281 143.708,72.281 C143.708,72.281 133.057,51.830 133.057,51.830 C133.057,51.830 133.057,71.180 133.057,71.180 C133.057,71.631 133.138,71.956 133.258,72.119 C133.421,72.323 133.704,72.444 134.150,72.567 C134.150,72.567 134.150,73.177 134.150,73.177 C134.150,73.177 128.724,73.177 128.724,73.177 C128.724,73.177 128.724,72.567 128.724,72.567 C129.209,72.444 129.492,72.323 129.655,72.119 C129.775,71.956 129.857,71.631 129.857,71.180 C129.857,71.180 129.857,49.628 129.857,49.628 C129.857,49.180 129.775,48.813 129.613,48.651 C129.492,48.448 129.168,48.284 128.724,48.162 C128.724,48.162 128.724,47.631 128.724,47.631 C128.724,47.631 136.703,47.631 136.703,47.631 C136.703,47.631 136.703,48.162 136.703,48.162 C136.379,48.284 136.135,48.407 135.973,48.569 C135.852,48.693 135.770,48.895 135.770,49.141 C135.770,49.180 135.810,49.222 135.810,49.303 C135.852,49.426 135.973,49.588 136.095,49.872 C136.095,49.872 143.830,65.111 143.830,65.111 C143.830,65.111 151.162,49.872 151.162,49.872 C151.244,49.710 151.325,49.548 151.365,49.384 C151.405,49.262 151.446,49.180 151.446,49.141 C151.446,48.895 151.365,48.693 151.244,48.569 C151.082,48.407 150.878,48.284 150.556,48.162 C150.556,48.162 150.556,47.631 150.556,47.631 C150.556,47.631 159.021,47.631 159.021,47.631 C159.021,47.631 159.021,48.162 159.021,48.162 C158.534,48.284 158.251,48.448 158.089,48.651 C157.967,48.813 157.886,49.180 157.886,49.628 C157.886,49.628 157.886,71.180 157.886,71.180 C157.886,71.631 157.967,71.956 158.089,72.119 C158.193,72.252 158.352,72.348 158.584,72.434 C158.911,72.284 159.179,72.100 159.426,71.915 C159.708,71.631 159.992,71.180 160.317,70.571 C160.317,70.571 167.324,54.884 167.324,54.884 C167.324,54.803 167.365,54.762 167.405,54.640 C167.648,54.192 167.729,53.825 167.729,53.622 C167.729,53.458 167.689,53.296 167.608,53.174 C167.485,53.011 167.324,52.889 167.122,52.765 C167.122,52.765 167.122,52.196 167.122,52.196 C167.122,52.196 173.885,52.196 173.885,52.196 C173.885,52.196 173.885,52.765 173.885,52.765 C173.683,52.889 173.522,53.011 173.440,53.133 C173.317,53.296 173.278,53.458 173.238,53.622 C173.238,53.825 173.359,54.192 173.642,54.762 C173.642,54.762 173.683,54.884 173.683,54.884 C173.683,54.884 180.853,70.244 180.853,70.244 C181.177,70.856 181.500,71.345 181.824,71.711 C182.050,71.962 182.291,72.151 182.555,72.305 C182.647,72.251 182.714,72.191 182.756,72.119 C182.877,71.956 182.959,71.631 182.959,71.180 C182.959,71.180 182.959,54.192 182.959,54.192 C182.959,53.744 182.877,53.418 182.756,53.256 C182.635,53.091 182.311,52.929 181.824,52.807 C181.824,52.807 181.824,52.196 181.824,52.196 C181.824,52.196 193.854,52.196 193.854,52.196 C196.649,52.196 198.836,52.726 200.335,53.785 C201.874,54.844 202.644,56.351 202.644,58.307 C202.644,59.732 202.199,60.955 201.347,61.893 C200.538,62.870 199.322,63.523 197.743,63.848 C197.743,63.848 202.159,70.896 202.159,70.896 C202.604,71.547 203.009,72.037 203.291,72.281 C203.397,72.387 203.508,72.470 203.623,72.533 C204.032,72.422 204.279,72.304 204.427,72.119 C204.547,71.956 204.628,71.631 204.628,71.180 C204.628,71.180 204.628,54.192 204.628,54.192 C204.628,53.744 204.547,53.418 204.427,53.256 C204.264,53.091 203.981,52.929 203.495,52.807 C203.495,52.807 203.495,52.196 203.495,52.196 C203.495,52.196 209.569,52.196 209.569,52.196 C209.569,52.196 209.569,52.807 209.569,52.807 C209.084,52.929 208.800,53.091 208.679,53.256 C208.518,53.418 208.436,53.744 208.436,54.192 C208.436,54.192 208.436,71.180 208.436,71.180 C208.436,71.631 208.518,71.956 208.679,72.119 C208.800,72.323 209.084,72.444 209.569,72.567 C209.569,72.567 209.569,73.177 209.569,73.177 C209.569,73.177 198.107,73.177 198.107,73.177 C198.107,73.177 198.107,72.689 198.107,72.689 ZM170.240,55.863 C170.240,55.863 166.352,64.540 166.352,64.540 C166.352,64.540 174.372,64.540 174.372,64.540 C174.372,64.540 170.240,55.863 170.240,55.863 ZM198.107,60.304 C198.756,59.856 199.080,59.162 199.080,58.185 C199.080,57.288 198.756,56.596 198.067,56.148 C197.418,55.699 196.405,55.495 195.028,55.495 C195.028,55.495 186.807,55.495 186.807,55.495 C186.807,55.495 186.807,60.997 186.807,60.997 C186.807,60.997 195.028,60.997 195.028,60.997 C196.446,60.997 197.460,60.752 198.107,60.304 ZM129.654,85.360 C129.492,85.197 129.208,85.033 128.722,84.912 C128.722,84.912 128.722,84.301 128.722,84.301 C128.722,84.301 145.735,84.301 145.735,84.301 C146.180,84.301 146.504,84.220 146.706,84.056 C146.908,83.934 147.072,83.608 147.233,83.160 C147.233,83.160 147.759,83.160 147.759,83.160 C147.759,83.160 147.759,88.620 147.759,88.620 C147.759,88.620 147.233,88.620 147.233,88.620 C147.072,88.130 146.908,87.845 146.747,87.682 C146.544,87.560 146.220,87.479 145.774,87.479 C145.774,87.479 133.664,87.479 133.664,87.479 C133.664,87.479 133.664,93.019 133.664,93.019 C133.664,93.019 141.318,93.019 141.318,93.019 C141.764,93.019 142.089,92.978 142.251,92.815 C142.454,92.653 142.655,92.368 142.858,91.919 C142.858,91.919 143.345,91.919 143.345,91.919 C143.345,91.919 143.345,97.337 143.345,97.337 C143.345,97.337 142.858,97.337 142.858,97.337 C142.697,96.849 142.494,96.524 142.332,96.402 C142.171,96.280 141.845,96.197 141.359,96.197 C141.359,96.197 133.664,96.197 133.664,96.197 C133.664,96.197 133.664,102.106 133.664,102.106 C133.664,102.106 146.544,102.106 146.544,102.106 C147.030,102.106 147.354,102.023 147.517,101.902 C147.719,101.738 147.880,101.453 148.042,100.965 C148.042,100.965 148.610,100.965 148.610,100.965 C148.610,100.965 148.610,106.424 148.610,106.424 C148.610,106.424 148.083,106.424 148.083,106.424 C147.921,105.976 147.759,105.649 147.556,105.528 C147.394,105.365 147.071,105.324 146.625,105.324 C146.625,105.324 128.721,105.324 128.721,105.324 C128.721,105.324 128.722,104.713 128.722,104.713 C129.208,104.590 129.492,104.468 129.654,104.264 C129.775,104.102 129.857,103.775 129.857,103.327 C129.857,103.327 129.857,86.297 129.857,86.297 C129.857,85.848 129.775,85.523 129.654,85.360 ZM119.528,78.068 C119.528,78.068 119.528,76.886 119.528,76.886 C120.419,76.397 121.107,75.867 121.594,75.296 C122.121,74.727 122.363,74.198 122.363,73.708 C122.363,73.382 122.161,73.178 121.755,73.178 C121.675,73.178 121.634,73.178 121.594,73.178 C121.067,73.057 120.662,72.892 120.419,72.607 C120.176,72.363 120.055,71.997 120.055,71.508 C120.055,70.978 120.257,70.571 120.580,70.205 C120.946,69.838 121.391,69.675 121.917,69.675 C122.566,69.675 123.052,69.919 123.457,70.449 C123.862,70.937 124.065,71.631 124.065,72.444 C124.065,73.627 123.700,74.685 122.889,75.664 C122.121,76.640 120.987,77.416 119.528,78.068 ZM113.735,72.567 C113.978,72.486 114.140,72.363 114.222,72.242 C114.304,72.120 114.384,71.997 114.384,71.793 C114.384,71.671 114.343,71.468 114.262,71.263 C114.222,71.061 114.101,70.816 113.938,70.489 C113.938,70.489 112.602,67.718 112.602,67.718 C112.602,67.718 101.907,67.718 101.907,67.718 C101.907,67.718 100.653,70.489 100.653,70.489 C100.571,70.653 100.491,70.856 100.451,71.101 C100.409,71.345 100.369,71.590 100.369,71.793 C100.369,71.997 100.409,72.160 100.491,72.242 C100.532,72.363 100.693,72.486 100.937,72.567 C100.937,72.567 100.937,73.178 100.937,73.178 C100.937,73.178 89.393,73.178 89.393,73.178 C89.393,73.178 89.393,72.567 89.393,72.567 C89.839,72.444 90.162,72.323 90.284,72.120 C90.445,71.956 90.486,71.631 90.486,71.182 C90.486,71.182 90.486,64.052 90.486,64.052 C90.486,64.052 77.242,64.052 77.242,64.052 C77.242,64.052 77.242,71.182 77.242,71.182 C77.242,71.631 77.322,71.956 77.443,72.120 C77.607,72.323 77.888,72.444 78.375,72.567 C78.375,72.567 78.375,73.178 78.375,73.178 C78.375,73.178 72.299,73.178 72.299,73.178 C72.299,73.178 72.299,72.567 72.299,72.567 C72.785,72.444 73.069,72.323 73.232,72.120 C73.353,71.956 73.433,71.631 73.433,71.182 C73.433,71.182 73.433,54.192 73.433,54.192 C73.433,53.744 73.353,53.418 73.232,53.256 C73.069,53.093 72.785,52.929 72.299,52.807 C72.299,52.807 72.299,52.197 72.299,52.197 C72.299,52.197 78.375,52.197 78.375,52.197 C78.375,52.197 78.375,52.807 78.375,52.807 C77.888,52.929 77.607,53.093 77.443,53.256 C77.322,53.418 77.242,53.744 77.242,54.192 C77.242,54.192 77.242,60.874 77.242,60.874 C77.242,60.874 90.486,60.874 90.486,60.874 C90.486,60.874 90.486,54.192 90.486,54.192 C90.486,53.744 90.445,53.418 90.284,53.256 C90.162,53.093 89.839,52.929 89.393,52.807 C89.393,52.807 89.393,52.197 89.393,52.197 C89.393,52.197 95.468,52.197 95.468,52.197 C95.468,52.197 95.468,52.807 95.468,52.807 C94.983,52.929 94.658,53.093 94.495,53.256 C94.374,53.460 94.293,53.744 94.293,54.192 C94.293,54.192 94.293,71.182 94.293,71.182 C94.293,71.631 94.374,71.915 94.495,72.120 C94.637,72.261 94.900,72.400 95.286,72.515 C95.703,72.355 96.023,72.136 96.279,71.915 C96.602,71.631 96.885,71.182 97.169,70.571 C97.169,70.571 104.216,54.886 104.216,54.886 C104.216,54.803 104.258,54.762 104.299,54.641 C104.501,54.192 104.623,53.825 104.623,53.622 C104.623,53.460 104.583,53.296 104.460,53.175 C104.380,53.011 104.216,52.889 103.974,52.766 C103.974,52.766 103.974,52.197 103.974,52.197 C103.974,52.197 110.780,52.197 110.780,52.197 C110.780,52.197 110.780,52.766 110.780,52.766 C110.576,52.889 110.414,53.011 110.293,53.133 C110.212,53.296 110.130,53.460 110.130,53.622 C110.130,53.825 110.253,54.192 110.496,54.762 C110.496,54.762 110.576,54.886 110.576,54.886 C110.576,54.886 117.746,70.245 117.746,70.245 C118.070,70.856 118.353,71.345 118.718,71.711 C119.082,72.120 119.488,72.363 119.974,72.567 C119.974,72.567 119.974,73.178 119.974,73.178 C119.974,73.178 113.735,73.178 113.735,73.178 C113.735,73.178 113.735,72.567 113.735,72.567 ZM107.134,55.863 C107.134,55.863 103.244,64.541 103.244,64.541 C103.244,64.541 111.265,64.541 111.265,64.541 C111.265,64.541 107.134,55.863 107.134,55.863 ZM68.654,58.348 C68.694,58.308 68.694,58.226 68.735,58.145 C68.735,58.105 68.775,58.022 68.775,57.940 C68.775,57.289 67.965,56.596 66.345,55.903 C64.765,55.211 63.106,54.844 61.404,54.844 C58.811,54.844 56.706,55.578 55.125,57.003 C53.546,58.470 52.737,60.385 52.737,62.749 C52.737,65.031 53.546,66.904 55.125,68.330 C56.706,69.756 58.811,70.489 61.404,70.489 C63.186,70.489 64.887,70.040 66.507,69.145 C68.127,68.248 68.938,67.556 68.938,67.027 C68.938,66.945 68.938,66.863 68.857,66.741 C68.815,66.578 68.775,66.456 68.694,66.292 C68.694,66.292 69.261,65.927 69.261,65.927 C69.261,65.927 72.664,70.205 72.664,70.205 C72.664,70.205 72.299,70.489 72.299,70.489 C72.137,70.367 71.975,70.285 71.854,70.205 C71.692,70.164 71.571,70.164 71.489,70.164 C71.409,70.164 71.124,70.285 70.720,70.612 C67.762,72.607 64.643,73.586 61.322,73.586 C57.677,73.586 54.720,72.567 52.411,70.489 C50.102,68.452 48.969,65.846 48.969,62.707 C48.969,59.529 50.102,56.922 52.371,54.844 C54.639,52.766 57.556,51.748 61.039,51.748 C63.632,51.749 66.386,52.359 69.343,53.662 C70.071,53.990 70.517,54.152 70.679,54.152 C70.761,54.152 70.841,54.111 70.963,54.030 C71.085,53.948 71.246,53.825 71.409,53.622 C71.409,53.622 71.854,53.866 71.854,53.866 C71.854,53.866 69.060,58.592 69.060,58.592 C69.060,58.592 68.654,58.348 68.654,58.348 ZM36.169,73.586 C32.645,73.586 29.769,72.567 27.501,70.489 C25.191,68.411 24.058,65.804 24.058,62.707 C24.058,59.529 25.191,56.881 27.459,54.844 C29.729,52.766 32.645,51.748 36.169,51.748 C39.693,51.748 42.568,52.766 44.838,54.844 C47.106,56.922 48.239,59.529 48.239,62.707 C48.239,65.804 47.106,68.411 44.838,70.489 C42.568,72.567 39.693,73.586 36.169,73.586 ZM42.123,56.841 C40.625,55.374 38.640,54.641 36.169,54.641 C33.698,54.641 31.713,55.374 30.215,56.841 C28.717,58.308 27.987,60.263 27.987,62.626 C27.987,65.031 28.717,66.986 30.215,68.452 C31.713,69.959 33.739,70.693 36.209,70.693 C38.640,70.693 40.584,69.959 42.082,68.452 C43.622,66.945 44.350,64.989 44.350,62.626 C44.350,60.263 43.622,58.308 42.123,56.841 ZM18.143,61.812 C19.035,63.238 20.210,65.031 21.588,67.312 C23.693,70.816 25.070,72.567 25.679,72.567 C25.679,72.567 25.881,72.567 25.881,72.567 C25.881,72.567 25.881,73.178 25.881,73.178 C25.881,73.178 19.115,73.178 19.115,73.178 C19.115,73.178 19.115,72.567 19.115,72.567 C19.115,72.567 19.318,72.567 19.318,72.567 C19.521,72.567 19.725,72.526 19.845,72.405 C19.967,72.323 20.008,72.160 20.008,71.997 C20.008,71.915 19.967,71.793 19.886,71.671 C19.845,71.590 19.805,71.549 19.805,71.508 C19.805,71.508 13.932,62.137 13.932,62.137 C13.932,62.137 5.101,62.137 5.101,62.137 C5.101,62.137 5.101,71.182 5.101,71.182 C5.101,71.631 5.183,71.956 5.345,72.120 C5.507,72.323 5.831,72.444 6.276,72.607 C6.276,72.607 6.276,73.178 6.276,73.178 C6.276,73.178 -0.002,73.178 -0.002,73.178 C-0.002,73.178 -0.002,72.607 -0.002,72.607 C0.444,72.444 0.727,72.323 0.889,72.160 C1.011,71.956 1.092,71.631 1.092,71.182 C1.092,71.182 1.092,49.629 1.092,49.629 C1.092,49.181 1.011,48.815 0.889,48.652 C0.727,48.448 0.444,48.284 -0.002,48.163 C-0.002,48.163 -0.002,47.633 -0.002,47.633 C-0.002,47.633 13.486,47.633 13.486,47.633 C16.808,47.633 19.400,48.284 21.223,49.589 C23.045,50.893 23.936,52.726 23.936,55.048 C23.936,56.800 23.451,58.267 22.398,59.448 C21.385,60.630 19.967,61.403 18.143,61.812 ZM18.347,52.073 C17.172,51.504 15.146,51.177 12.392,51.177 C12.392,51.177 5.101,51.177 5.101,51.177 C5.101,51.177 5.101,58.633 5.101,58.633 C5.101,58.633 12.595,58.633 12.595,58.633 C15.228,58.633 17.132,58.347 18.306,57.737 C19.521,57.126 20.129,56.148 20.129,54.844 C20.129,53.581 19.521,52.644 18.347,52.073 ZM130.545,120.480 C130.545,120.480 132.935,115.182 132.935,115.182 C132.935,115.182 132.935,115.102 132.935,115.102 C133.016,114.938 133.057,114.817 133.057,114.776 C133.057,114.695 133.057,114.654 133.016,114.613 C132.976,114.531 132.935,114.490 132.854,114.490 C132.854,114.490 132.854,114.287 132.854,114.287 C132.854,114.287 135.121,114.287 135.121,114.287 C135.121,114.287 135.121,114.490 135.121,114.490 C135.082,114.490 135.001,114.531 135.001,114.613 C134.960,114.654 134.920,114.695 134.920,114.776 C134.920,114.817 134.960,114.938 135.040,115.142 C135.040,115.142 135.082,115.182 135.082,115.182 C135.082,115.182 137.471,120.358 137.471,120.358 C137.592,120.602 137.715,120.765 137.837,120.887 C137.957,121.009 138.079,121.091 138.241,121.173 C138.241,121.173 138.241,121.377 138.241,121.377 C138.241,121.377 136.135,121.377 136.135,121.377 C136.135,121.377 136.135,121.173 136.135,121.173 C136.216,121.132 136.257,121.091 136.297,121.051 C136.338,121.009 136.338,120.969 136.338,120.887 C136.338,120.846 136.338,120.805 136.297,120.725 C136.297,120.642 136.257,120.561 136.216,120.440 C136.216,120.440 135.770,119.543 135.770,119.543 C135.770,119.543 132.166,119.543 132.166,119.543 C132.166,119.543 131.720,120.440 131.720,120.440 C131.680,120.521 131.680,120.602 131.639,120.684 C131.639,120.765 131.639,120.805 131.639,120.887 C131.639,120.969 131.639,121.009 131.680,121.051 C131.680,121.091 131.720,121.132 131.841,121.173 C131.841,121.173 131.841,121.377 131.841,121.377 C131.841,121.377 129.857,121.377 129.857,121.377 C129.857,121.377 129.857,121.173 129.857,121.173 C130.019,121.091 130.139,121.009 130.262,120.928 C130.342,120.846 130.464,120.684 130.545,120.480 ZM135.285,118.443 C135.285,118.443 133.907,115.510 133.907,115.510 C133.907,115.510 132.611,118.443 132.611,118.443 C132.611,118.443 135.285,118.443 135.285,118.443 ZM153.633,115.142 C154.321,115.713 154.686,116.610 154.686,117.832 C154.686,119.014 154.321,119.910 153.633,120.480 C152.904,121.091 151.810,121.377 150.312,121.377 C150.312,121.377 146.910,121.377 146.910,121.377 C146.910,121.377 146.910,121.173 146.910,121.173 C147.071,121.132 147.153,121.091 147.192,121.009 C147.273,120.969 147.273,120.846 147.273,120.684 C147.273,120.684 147.273,114.938 147.273,114.938 C147.273,114.817 147.273,114.695 147.192,114.613 C147.153,114.573 147.071,114.531 146.910,114.490 C146.910,114.490 146.910,114.287 146.910,114.287 C146.910,114.287 150.312,114.287 150.312,114.287 C151.810,114.287 152.904,114.573 153.633,115.142 ZM148.570,120.316 C148.570,120.316 150.514,120.316 150.514,120.316 C151.406,120.316 152.093,120.113 152.580,119.665 C153.066,119.258 153.308,118.647 153.308,117.832 C153.308,117.058 153.066,116.446 152.580,115.997 C152.093,115.591 151.406,115.386 150.514,115.386 C150.514,115.386 148.570,115.386 148.570,115.386 C148.570,115.386 148.570,120.316 148.570,120.316 ZM164.934,114.490 C164.812,114.490 164.690,114.531 164.651,114.613 C164.570,114.695 164.529,114.776 164.529,114.857 C164.529,114.899 164.529,114.899 164.529,114.980 C164.570,115.020 164.570,115.062 164.609,115.142 C164.609,115.142 166.716,119.787 166.716,119.787 C166.716,119.787 168.701,115.142 168.701,115.142 C168.701,115.102 168.742,115.062 168.742,114.980 C168.742,114.980 168.782,114.857 168.782,114.857 C168.782,114.776 168.742,114.695 168.660,114.613 C168.620,114.531 168.498,114.490 168.377,114.490 C168.377,114.490 168.377,114.287 168.377,114.287 C168.377,114.287 170.644,114.287 170.644,114.287 C170.644,114.287 170.644,114.490 170.644,114.490 C170.483,114.531 170.361,114.613 170.240,114.695 C170.159,114.817 170.079,114.938 169.997,115.142 C169.997,115.142 167.729,120.440 167.729,120.440 C167.689,120.521 167.689,120.602 167.689,120.642 C167.689,120.642 167.647,120.765 167.647,120.765 C167.647,120.887 167.689,121.009 167.729,121.051 C167.809,121.091 167.890,121.132 168.012,121.173 C168.012,121.173 168.012,121.377 168.012,121.377 C168.012,121.377 165.419,121.377 165.419,121.377 C165.419,121.377 165.419,121.173 165.419,121.173 C165.541,121.132 165.622,121.091 165.664,121.051 C165.743,121.009 165.743,120.887 165.743,120.765 C165.743,120.765 165.743,120.642 165.743,120.642 C165.704,120.561 165.704,120.521 165.664,120.440 C165.664,120.440 163.313,115.142 163.313,115.142 C163.233,114.938 163.152,114.817 163.030,114.695 C162.949,114.613 162.827,114.531 162.665,114.490 C162.665,114.490 162.665,114.287 162.665,114.287 C162.665,114.287 164.934,114.287 164.934,114.287 C164.934,114.287 164.934,114.490 164.934,114.490 ZM182.715,114.125 C183.890,114.125 184.862,114.451 185.633,115.182 C186.401,115.876 186.766,116.731 186.766,117.832 C186.766,118.891 186.401,119.747 185.633,120.440 C184.862,121.173 183.890,121.498 182.715,121.498 C181.500,121.498 180.529,121.173 179.759,120.440 C178.989,119.747 178.625,118.891 178.625,117.832 C178.625,116.731 178.989,115.876 179.759,115.182 C180.529,114.451 181.500,114.125 182.715,114.125 ZM180.690,119.787 C181.216,120.277 181.865,120.521 182.715,120.521 C183.526,120.521 184.213,120.277 184.700,119.787 C185.227,119.258 185.470,118.605 185.470,117.790 C185.470,116.977 185.227,116.324 184.700,115.835 C184.213,115.347 183.526,115.102 182.715,115.102 C181.865,115.102 181.216,115.347 180.690,115.835 C180.203,116.324 179.921,116.977 179.921,117.790 C179.921,118.605 180.203,119.258 180.690,119.787 ZM199.202,114.125 C200.052,114.125 201.024,114.327 201.996,114.776 C202.238,114.899 202.400,114.938 202.441,114.938 C202.441,114.938 202.563,114.899 202.563,114.899 C202.603,114.857 202.644,114.817 202.725,114.776 C202.725,114.776 202.886,114.857 202.886,114.857 C202.886,114.857 201.915,116.446 201.915,116.446 C201.915,116.446 201.754,116.364 201.754,116.364 C201.754,116.364 201.754,116.243 201.754,116.243 C201.754,115.997 201.509,115.795 200.984,115.551 C200.456,115.347 199.930,115.224 199.322,115.224 C198.431,115.224 197.743,115.468 197.216,115.917 C196.689,116.406 196.406,117.058 196.406,117.832 C196.406,118.605 196.689,119.258 197.216,119.705 C197.743,120.196 198.472,120.440 199.322,120.440 C199.646,120.440 200.010,120.398 200.376,120.277 C200.739,120.154 201.185,119.991 201.754,119.705 C201.754,119.705 201.754,118.810 201.754,118.810 C201.754,118.810 199.890,118.810 199.890,118.810 C199.768,118.810 199.646,118.849 199.565,118.891 C199.526,118.932 199.444,119.054 199.403,119.176 C199.403,119.176 199.241,119.176 199.241,119.176 C199.241,119.176 199.241,117.342 199.241,117.342 C199.241,117.342 199.403,117.342 199.403,117.342 C199.444,117.506 199.526,117.588 199.565,117.628 C199.606,117.669 199.728,117.709 199.890,117.709 C199.890,117.709 203.129,117.709 203.129,117.709 C203.129,117.709 203.129,117.913 203.129,117.913 C202.968,117.955 202.886,117.994 202.846,118.076 C202.806,118.117 202.765,118.239 202.765,118.403 C202.765,118.403 202.765,119.665 202.765,119.665 C202.765,119.665 203.129,119.787 203.129,119.787 C203.129,119.787 203.129,120.032 203.129,120.032 C202.603,120.521 201.996,120.887 201.347,121.132 C200.700,121.377 200.010,121.498 199.282,121.498 C198.066,121.498 197.054,121.173 196.284,120.480 C195.514,119.787 195.150,118.891 195.150,117.832 C195.150,116.731 195.514,115.876 196.284,115.182 C197.054,114.451 198.027,114.125 199.202,114.125 ZM212.325,120.480 C212.325,120.480 214.673,115.182 214.673,115.182 C214.673,115.182 214.714,115.102 214.714,115.102 C214.796,114.938 214.835,114.817 214.835,114.776 C214.835,114.695 214.796,114.654 214.796,114.613 C214.754,114.531 214.673,114.490 214.633,114.490 C214.633,114.490 214.633,114.287 214.633,114.287 C214.633,114.287 216.901,114.287 216.901,114.287 C216.901,114.287 216.901,114.490 216.901,114.490 C216.821,114.490 216.781,114.531 216.739,114.613 C216.698,114.654 216.698,114.695 216.698,114.776 C216.698,114.817 216.739,114.938 216.821,115.142 C216.821,115.142 216.860,115.182 216.860,115.182 C216.860,115.182 219.250,120.358 219.250,120.358 C219.372,120.602 219.453,120.765 219.575,120.887 C219.697,121.009 219.858,121.091 220.020,121.173 C220.020,121.173 220.020,121.377 220.020,121.377 C220.020,121.377 217.914,121.377 217.914,121.377 C217.914,121.377 217.914,121.173 217.914,121.173 C217.996,121.132 218.035,121.091 218.076,121.051 C218.117,121.009 218.117,120.969 218.117,120.887 C218.117,120.846 218.117,120.805 218.076,120.725 C218.076,120.642 218.035,120.561 217.954,120.440 C217.954,120.440 217.509,119.543 217.509,119.543 C217.509,119.543 213.905,119.543 213.905,119.543 C213.905,119.543 213.499,120.440 213.499,120.440 C213.459,120.521 213.418,120.602 213.418,120.684 C213.418,120.765 213.378,120.805 213.378,120.887 C213.378,120.969 213.418,121.009 213.418,121.051 C213.459,121.091 213.499,121.132 213.579,121.173 C213.579,121.173 213.579,121.377 213.579,121.377 C213.579,121.377 211.635,121.377 211.635,121.377 C211.635,121.377 211.635,121.173 211.635,121.173 C211.797,121.091 211.920,121.009 212.041,120.928 C212.122,120.846 212.203,120.684 212.325,120.480 ZM217.064,118.443 C217.064,118.443 215.686,115.510 215.686,115.510 C215.686,115.510 214.350,118.443 214.350,118.443 C214.350,118.443 217.064,118.443 217.064,118.443 ZM235.453,115.142 C236.142,115.713 236.505,116.610 236.505,117.832 C236.505,119.014 236.142,119.910 235.412,120.480 C234.723,121.091 233.590,121.377 232.091,121.377 C232.091,121.377 228.688,121.377 228.688,121.377 C228.688,121.377 228.688,121.173 228.688,121.173 C228.810,121.132 228.930,121.091 228.972,121.009 C229.012,120.969 229.053,120.846 229.053,120.684 C229.053,120.684 229.053,114.938 229.053,114.938 C229.053,114.817 229.012,114.695 228.972,114.613 C228.930,114.573 228.810,114.531 228.688,114.490 C228.688,114.490 228.688,114.287 228.688,114.287 C228.688,114.287 232.091,114.287 232.091,114.287 C233.590,114.287 234.723,114.573 235.453,115.142 ZM230.350,120.316 C230.350,120.316 232.294,120.316 232.294,120.316 C233.225,120.316 233.914,120.113 234.400,119.665 C234.885,119.258 235.127,118.647 235.127,117.832 C235.127,117.058 234.885,116.446 234.400,115.997 C233.914,115.591 233.225,115.386 232.294,115.386 C232.294,115.386 230.350,115.386 230.350,115.386 C230.350,115.386 230.350,120.316 230.350,120.316 ZM248.941,114.125 C250.116,114.125 251.088,114.451 251.857,115.182 C252.626,115.876 252.991,116.731 252.991,117.832 C252.991,118.891 252.626,119.747 251.857,120.440 C251.088,121.173 250.116,121.498 248.941,121.498 C247.726,121.498 246.754,121.173 245.984,120.440 C245.215,119.747 244.850,118.891 244.850,117.832 C244.850,116.731 245.215,115.876 245.984,115.182 C246.754,114.451 247.726,114.125 248.941,114.125 ZM246.916,119.787 C247.442,120.277 248.091,120.521 248.941,120.521 C249.751,120.521 250.440,120.277 250.924,119.787 C251.452,119.258 251.695,118.605 251.695,117.790 C251.695,116.977 251.452,116.324 250.924,115.835 C250.440,115.347 249.751,115.102 248.941,115.102 C248.091,115.102 247.442,115.347 246.916,115.835 C246.428,116.324 246.187,116.977 246.187,117.790 C246.187,118.605 246.428,119.258 246.916,119.787 ZM262.632,119.014 C262.632,119.095 262.632,119.135 262.632,119.176 C262.632,119.176 262.591,119.258 262.591,119.258 C262.591,119.461 262.914,119.705 263.482,120.032 C264.089,120.316 264.738,120.440 265.386,120.440 C266.074,120.440 266.642,120.316 267.088,120.113 C267.492,119.868 267.695,119.585 267.695,119.216 C267.695,118.891 267.573,118.647 267.249,118.524 C266.965,118.403 266.317,118.321 265.345,118.321 C264.130,118.279 263.279,118.117 262.793,117.832 C262.267,117.506 262.024,117.058 262.024,116.406 C262.024,115.754 262.348,115.182 262.996,114.776 C263.603,114.327 264.454,114.125 265.467,114.125 C266.195,114.125 266.965,114.287 267.775,114.613 C268.019,114.736 268.180,114.776 268.221,114.776 C268.261,114.776 268.302,114.776 268.384,114.736 C268.423,114.695 268.465,114.654 268.545,114.573 C268.545,114.573 268.707,114.654 268.707,114.654 C268.707,114.654 267.857,116.324 267.857,116.324 C267.857,116.324 267.654,116.243 267.654,116.243 C267.654,116.243 267.654,116.203 267.654,116.203 C267.654,116.203 267.695,116.120 267.695,116.120 C267.695,115.876 267.451,115.672 266.965,115.468 C266.520,115.265 265.993,115.182 265.386,115.182 C264.777,115.182 264.251,115.265 263.846,115.510 C263.442,115.713 263.239,115.957 263.239,116.283 C263.239,116.731 263.888,116.977 265.223,117.058 C265.547,117.058 265.831,117.099 265.993,117.099 C267.047,117.179 267.775,117.342 268.221,117.669 C268.626,117.955 268.869,118.443 268.869,119.054 C268.869,119.787 268.504,120.358 267.815,120.805 C267.127,121.295 266.276,121.540 265.223,121.540 C264.211,121.540 263.198,121.213 262.187,120.602 C262.024,120.480 261.944,120.440 261.902,120.440 C261.902,120.440 261.821,120.480 261.821,120.480 C261.780,120.480 261.699,120.521 261.619,120.602 C261.619,120.602 261.457,120.521 261.457,120.521 C261.457,120.521 262.470,118.932 262.470,118.932 C262.470,118.932 262.632,119.014 262.632,119.014 Z" id="path-1" class="cls-2" fill-rule="evenodd"/>
</svg>
